<?xml version="1.0" encoding="UTF-8"?>
<svg id="Layer_2" data-name="Layer 2" xmlns="http://www.w3.org/2000/svg" viewBox="0 0 318.79 392.01">
  <defs>
    <style>
      .cls-1 {
        fill: #fff;
      }

      .cls-1, .cls-2, .cls-3, .cls-4, .cls-5, .cls-6, .cls-7 {
        fill-rule: evenodd;
      }

      .cls-8, .cls-4 {
        fill: #a3bd3a;
      }

      .cls-2 {
        fill: #fdba51;
      }

      .cls-3 {
        fill: #865743;
      }

      .cls-9, .cls-5 {
        fill: #552716;
      }

      .cls-6 {
        fill: #dfd1c5;
      }

      .cls-7 {
        fill: #fff9ee;
      }
    </style>
  </defs>
  <g id="Layer_1-2" data-name="Layer 1">
    <g>
      <path class="cls-7" d="m197.86,281.1c1.69-3.26-16.08-70.64,70.53-74.02,0,0,9.67,99.89-70.53,74.02h0Z"/>
      <path class="cls-4" d="m268.73,214.06c.45,21.26-3.38,82.9-62.32,69.4-1.12-14.73-4.72-63.1,62.32-69.4h0Z"/>
      <path class="cls-9" d="m194.6,279.53c.23-.45-.22-.68-.34-2.25-1.24-16.31-5.29-70.75,74.01-73.79,1.91-.11,3.6,1.35,3.71,3.26.11.34,10.12,105.29-75.25,77.84-1.8-.67-2.93-2.7-2.25-4.5l.11-.56Zm6.75-2.81l.22,1.8c63.78,18.67,64.23-51.07,63.55-67.72-68.28,4.27-64.79,51.63-63.78,65.92h0Z"/>
      <path class="cls-7" d="m199.66,285.6c1.91-1.13,16.65-41.17,61.3-12.6,0,0-30.15,53.54-61.3,12.6h0Z"/>
      <path class="cls-4" d="m258.27,277.17c-7.42,10.91-29.58,38.02-53.32,14.4,4.39-7.42,18.9-32.51,53.32-14.4h0Z"/>
      <path class="cls-9" d="m197.86,282.45c.57-.34-.34-.11.11-.79,5.18-8.89,22.84-38.58,64.91-11.7,1.57,1.01,2.13,3.15,1.24,4.84-.11.22-32.73,58.27-67.38,12.94-1.12-1.57-.9-3.82.67-5.06l.45-.22Zm6.3,2.81l-.11.11c23.17,27.67,45.56-1.46,51.97-11.14-33.63-19.68-47.58,3.82-51.85,11.02h0Z"/>
      <path class="cls-9" d="m205.51,289.31c-1.57,1.24-3.83.9-5.06-.67-1.24-1.58-.9-3.83.67-5.06,0,0,6.08-3.71,27-7.42,1.91-.34,3.83,1.01,4.16,2.92.34,2.02-1.02,3.83-2.93,4.16-19.35,3.38-23.85,6.07-23.85,6.07h0Z"/>
      <path class="cls-9" d="m211.7,266.82c-.68,1.8-2.7,2.81-4.61,2.14-1.91-.56-2.93-2.59-2.25-4.5,0,0,2.93-6.53,18.11-21.26,1.46-1.46,3.71-1.46,5.07,0,1.46,1.46,1.35,3.71,0,5.06-14.06,13.72-16.31,18.45-16.31,18.56h0Z"/>
      <path class="cls-7" d="m125.65,281.1c-1.57-3.26,16.09-70.64-70.53-74.02,0,0-9.67,99.89,70.53,74.02h0Z"/>
      <path class="cls-4" d="m54.78,214.06c-.45,21.26,3.38,82.9,62.32,69.4,1.13-14.73,4.72-63.1-62.32-69.4h0Z"/>
      <path class="cls-9" d="m128.91,279.53c-.23-.45.22-.68.45-2.25,1.12-16.31,5.17-70.75-74.13-73.79-1.91-.11-3.6,1.35-3.71,3.26-.11.34-10.13,105.29,75.25,77.84,1.91-.67,2.92-2.7,2.25-4.5l-.11-.56Zm-6.75-2.81l-.11,1.8c-63.89,18.67-64.34-51.07-63.55-67.72,68.17,4.27,64.68,51.63,63.67,65.92h0Z"/>
      <path class="cls-7" d="m123.85,285.6c-1.91-1.13-16.54-41.17-61.31-12.6,0,0,30.15,53.54,61.31,12.6h0Z"/>
      <path class="cls-4" d="m65.24,277.17c7.42,10.91,29.58,38.02,53.43,14.4-4.5-7.42-19.01-32.51-53.43-14.4h0Z"/>
      <path class="cls-9" d="m125.65,282.45c-.56-.34.34-.11-.11-.79-5.17-8.89-22.83-38.58-64.9-11.7-1.58,1.01-2.14,3.15-1.12,4.84,0,.22,32.73,58.27,67.27,12.94,1.12-1.57.9-3.82-.68-5.06l-.45-.22Zm-6.3,2.81l.11.11c-23.17,27.67-45.45-1.46-51.97-11.14,33.63-19.68,47.58,3.82,51.86,11.02h0Z"/>
      <path class="cls-9" d="m118,289.31c1.69,1.24,3.94.9,5.07-.67,1.24-1.58.9-3.83-.68-5.06,0,0-6.07-3.71-27-7.42-1.91-.34-3.82,1.01-4.16,2.92-.34,2.02,1.01,3.83,2.93,4.16,19.35,3.38,23.84,6.07,23.84,6.07h0Z"/>
      <path class="cls-9" d="m111.92,266.82c.56,1.8,2.59,2.81,4.5,2.14,1.91-.56,2.93-2.59,2.25-4.5,0,0-2.93-6.53-18.11-21.26-1.46-1.46-3.71-1.46-5.06,0-1.35,1.46-1.35,3.71,0,5.06,14.06,13.72,16.31,18.45,16.42,18.56h0Z"/>
      <path class="cls-5" d="m115.41,290.89c-1.46-2.36-2.48-4.95-2.7-7.87l-4.27-47.02c-.11-.22-.11-.45-.11-.79l-.34-3.71h0l-6.3-69.63-.34-3.49h0l-3.93-43.65c-19.24-.23-19.8-28.68-1.69-30.48,1.92-13.72,13.72-24.41,27.9-24.41h72.33c14.28,0,26.1,10.69,27.9,24.41,17.66,1.91,18.11,30.26-1.58,30.48l-3.94,43.31c0,.23,0,.45-.11.67l-.22,3.15h0l-6.3,69.63h0l-.45,4.05v.11l-4.27,47.36c-.22,2.93-1.24,5.51-2.7,7.87,0,0-5.29,7.54-13.27,7.54h-62.32c-7.99,0-13.27-7.54-13.27-7.54h0Z"/>
      <path class="cls-1" d="m203.38,239.03h-87.18l3.94,43.31c.22,2.36,1.35,4.5,2.93,6.07,1.57,1.58,3.6,2.47,5.62,2.47h62.32c2.02,0,4.05-.9,5.51-2.47,1.57-1.58,2.7-3.71,2.93-6.07l3.94-43.31Zm-94.83-84.7l102.59-.11,3.6-39.48h-109.79l3.6,39.6Z"/>
      <polygon class="cls-1" points="210.46 161.87 109.22 161.87 115.52 231.5 204.05 231.5 210.46 161.87"/>
      <path class="cls-7" d="m139.03,290.89h52.08c1.91,0,3.94-1.01,5.4-2.47,1.57-1.58,2.7-3.71,2.93-6.07l3.94-43.31h-76.6l3.93,43.31c.23,2.36,1.24,4.5,2.93,6.07,1.46,1.46,3.38,2.47,5.4,2.47h0Zm-23.62-176.15l3.6,39.6h0l92.13-.11,3.6-39.48h-99.32Z"/>
      <polygon class="cls-3" points="210.46 161.87 119.69 161.87 126.1 231.5 204.05 231.5 210.46 161.87"/>
      <path class="cls-7" d="m216.2,84.25c-1.8-9.67-10.35-16.87-20.25-16.87h-72.33c-9.79,0-18.34,7.2-20.14,16.87h112.71Z"/>
      <path class="cls-7" d="m97.52,107.08h124.52c9.9,0,10.35-15.3,0-15.3h-124.52c-10.01,0-10.01,15.3,0,15.3h0Z"/>
      <path class="cls-2" d="m216.2,84.25c-1.8-9.67-10.35-16.87-20.25-16.87h-60.07c-9.9,0-18.45,7.2-20.25,16.87h100.56Z"/>
      <path class="cls-6" d="m109.79,107.08h112.26c9.9,0,10.35-15.3,0-15.3h-112.26c-10.12,0-10.12,15.3,0,15.3h0Z"/>
      <path class="cls-9" d="m97.52,107.08h124.52c9.9,0,10.35-15.3,0-15.3h-124.52c-10.01,0-10.01,15.3,0,15.3h0Zm37.23-56.58c0,2.14-1.69,3.82-3.82,3.82s-3.71-1.69-3.71-3.82v-29.36c0-2.14,1.69-3.82,3.71-3.82,2.14,0,3.82,1.69,3.82,3.82v29.36Zm28.8-37.57c0,2.14-1.69,3.83-3.71,3.83-2.13,0-3.82-1.69-3.82-3.83V3.83c0-2.03,1.69-3.83,3.82-3.83s3.71,1.8,3.71,3.83v9.11Zm28.91,37.57c0,2.14-1.69,3.82-3.83,3.82-2.02,0-3.71-1.69-3.71-3.82v-29.36c0-2.14,1.69-3.82,3.71-3.82,2.14,0,3.83,1.69,3.83,3.82v29.36Zm-28.91,0c0,2.14-1.69,3.82-3.71,3.82-2.13,0-3.82-1.69-3.82-3.82v-25.42c0-2.14,1.69-3.83,3.82-3.83s3.71,1.69,3.71,3.83v25.42Zm-48.14,240.38c-1.46-2.36-2.48-4.95-2.7-7.87l-4.27-47.02c-.11-.22-.11-.45-.11-.79l-.34-3.71h0l-6.3-69.63-.34-3.49h0l-3.93-43.65c-19.24-.23-19.8-28.68-1.69-30.48,1.92-13.72,13.72-24.41,27.9-24.41h72.33c14.28,0,26.1,10.69,27.9,24.41,17.66,1.91,18.11,30.26-1.58,30.48l-3.94,43.31c0,.23,0,.45-.11.67l-.22,3.15h0l-6.3,69.63h0l-.45,4.05v.11l-4.27,47.36c-.22,2.93-1.24,5.51-2.7,7.87,0,0-5.29,7.54-13.27,7.54h-62.32c-7.99,0-13.27-7.54-13.27-7.54h0Zm95.05-129.02h-101.24l6.3,69.63h88.53l6.41-69.63Zm-101.91-7.54l102.59-.11,3.6-39.48h-109.79l3.6,39.6Zm94.83,84.7h-87.18l3.94,43.31c.22,2.36,1.35,4.5,2.93,6.07,1.57,1.58,3.6,2.47,5.62,2.47h62.32c2.02,0,4.05-.9,5.51-2.47,1.57-1.58,2.7-3.71,2.93-6.07l3.94-43.31Zm12.82-154.78c-1.8-9.67-10.35-16.87-20.25-16.87h-72.33c-9.79,0-18.34,7.2-20.14,16.87h112.71Z"/>
      <path class="cls-9" d="m26.77,349.38l.11.22c0,4.5-1.01,7.88-3.26,10.24-2.14,2.25-5.4,3.37-9.56,3.37s-7.65-1.24-10.24-3.94c-2.47-2.59-3.82-6.3-3.82-11.02v-12.26c0-4.73,1.24-8.44,3.71-11.14,2.48-2.59,5.74-3.94,9.9-3.94s7.65,1.24,9.9,3.6c2.14,2.25,3.38,5.74,3.38,10.35v.11h-7.76c.11-2.7-.22-4.61-1.12-5.85-.9-1.12-2.36-1.69-4.39-1.69-1.8,0-3.26.67-4.16,2.02-1.02,1.46-1.46,3.6-1.46,6.41v12.37c0,2.93.45,5.06,1.58,6.41,1.01,1.46,2.47,2.14,4.5,2.14,1.91,0,3.26-.56,4.05-1.69.67-1.13,1.01-3.04,1.01-5.74h7.65Zm32.62-1.46c0,4.84-1.24,8.55-3.82,11.25-2.7,2.7-6.19,4.05-10.46,4.05s-7.88-1.35-10.46-4.05c-2.59-2.7-3.94-6.41-3.94-11.25v-11.58c0-4.72,1.35-8.55,3.94-11.25,2.58-2.7,6.07-4.16,10.35-4.16s7.87,1.46,10.46,4.16c2.7,2.7,3.94,6.53,3.94,11.25v11.58Zm-7.98-11.58c0-2.93-.45-5.18-1.58-6.75-1.12-1.46-2.7-2.13-4.84-2.13s-3.6.67-4.72,2.13c-1.01,1.58-1.57,3.71-1.57,6.75v11.58c0,2.93.56,5.18,1.69,6.64,1.01,1.46,2.58,2.25,4.72,2.25,2.02,0,3.6-.79,4.72-2.25,1.12-1.46,1.58-3.71,1.58-6.64v-11.58Zm35.21,9.22h-13.95v17.1h-7.99v-41.06h24.41v6.41h-16.42v11.14h13.95v6.41Zm28.68,0h-13.95v17.1h-7.99v-41.06h24.41v6.41h-16.42v11.14h13.95v6.41Zm28.57-.9h-13.84v11.59h16.31v6.41h-24.3v-41.06h24.19v6.41h-16.2v10.24h13.84v6.41Zm28.46,0h-13.84v11.59h16.2v6.41h-24.19v-41.06h24.19v6.41h-16.2v10.24h13.84v6.41Zm37.57,7.2c0-1.58-.45-2.81-1.24-3.71-.9-.9-2.36-1.91-4.39-2.81-4.27-1.46-7.54-3.15-9.67-5.06-2.14-1.8-3.15-4.5-3.15-7.88s1.24-6.07,3.71-8.21c2.47-2.14,5.62-3.26,9.45-3.26s7.09,1.24,9.56,3.6c2.48,2.36,3.6,5.4,3.6,9l-.11.11h-7.76c0-1.8-.45-3.37-1.46-4.5-.9-1.12-2.25-1.69-3.94-1.69-1.57,0-2.81.45-3.71,1.35-.9,1.01-1.35,2.25-1.35,3.6s.45,2.47,1.46,3.38c1.01.9,2.7,1.8,5.17,2.92,3.94,1.24,6.86,2.92,8.88,4.95,1.92,2.02,2.93,4.72,2.93,8.21s-1.24,6.3-3.6,8.32c-2.36,2.02-5.51,3.04-9.45,3.04s-7.31-1.12-10.12-3.37c-2.93-2.36-4.27-5.62-4.16-9.9v-.11h7.88c0,2.47.45,4.27,1.57,5.4,1.12,1.12,2.7,1.69,4.84,1.69,1.69,0,2.93-.45,3.82-1.35.79-.9,1.24-2.14,1.24-3.71h0Zm41.84,10.8h-8.1v-17.1h-12.71v17.1h-8.1v-41.06h8.1v17.55h12.71v-17.55h8.1v41.06Zm33.86-14.74c0,4.84-1.35,8.55-3.94,11.25-2.58,2.7-6.07,4.05-10.46,4.05s-7.76-1.35-10.35-4.05c-2.58-2.7-3.93-6.41-3.93-11.25v-11.58c0-4.72,1.35-8.55,3.93-11.25,2.59-2.7,6.08-4.16,10.35-4.16s7.76,1.46,10.46,4.16c2.59,2.7,3.94,6.53,3.94,11.25v11.58Zm-7.99-11.58c0-2.93-.56-5.18-1.69-6.75-1.01-1.46-2.59-2.13-4.72-2.13s-3.71.67-4.72,2.13c-1.01,1.58-1.58,3.71-1.58,6.75v11.58c0,2.93.57,5.18,1.58,6.64,1.12,1.46,2.7,2.25,4.72,2.25,2.13,0,3.71-.79,4.72-2.25,1.12-1.46,1.69-3.71,1.69-6.64v-11.58Zm21.26,11.58v14.74h-8.1v-41.06h14.29c4.16,0,7.43,1.12,9.79,3.6,2.36,2.48,3.49,5.62,3.49,9.56s-1.12,7.09-3.49,9.56c-2.47,2.36-5.62,3.6-9.79,3.6h-6.19Zm0-6.41h6.19c1.8,0,3.04-.67,3.94-1.91.9-1.24,1.35-2.81,1.35-4.84,0-1.91-.45-3.6-1.35-4.84-.9-1.35-2.14-1.91-3.94-1.91h-6.19v13.5Z"/>
      <path class="cls-8" d="m4.72,373.12h10.24v3.49h-3.38v14.96h-3.6v-14.96h-3.26v-3.49Zm12.6,0h3.6v6.97h6.19v-6.97h3.49v18.45h-3.49v-8.1h-6.19v8.1h-3.6v-18.45Zm17.55,0h10.01v3.49h-6.53v3.26h6.53v3.38h-6.53v4.95h6.53v3.38h-10.01v-18.45Zm20.47,18.45v-18.45h2.92c1.69,0,2.93.11,3.71.34,1.12.34,1.91.9,2.59,1.69.67.79,1.01,1.69,1.01,2.81,0,.67-.11,1.35-.45,1.91-.34.56-.79,1.13-1.46,1.58,1.12.56,1.91,1.24,2.47,2.02.56.79.79,1.69.79,2.7,0,1.13-.22,2.02-.79,2.93-.56.79-1.24,1.46-2.14,1.91-.79.34-2.03.56-3.49.56h-5.17Zm3.48-15.07v3.94h.79c.9,0,1.58-.23,1.91-.56.45-.34.67-.9.67-1.46s-.22-1.01-.56-1.35c-.45-.34-1.01-.56-1.91-.56h-.9Zm0,7.09v4.72h.9c1.46,0,2.47-.22,2.92-.56.56-.45.79-.9.79-1.69s-.22-1.35-.9-1.8c-.56-.45-1.57-.67-2.93-.67h-.79Zm11.47-10.46h10.01v3.49h-6.52v3.26h6.52v3.38h-6.52v4.95h6.52v3.38h-10.01v-18.45Zm22.95,2.59l-2.59,2.25c-.9-1.24-1.8-1.91-2.7-1.91-.56,0-.9.11-1.24.34-.22.34-.34.56-.34.9s0,.56.22.9c.34.34,1.24,1.12,2.59,2.36,1.35,1.12,2.13,1.8,2.47,2.02.67.79,1.24,1.46,1.46,2.14.34.67.45,1.35.45,2.14,0,1.46-.45,2.7-1.58,3.71-1.01,1.01-2.36,1.46-4.05,1.46-1.35,0-2.47-.22-3.38-.9-1.01-.67-1.91-1.69-2.58-3.04l2.93-1.8c.9,1.57,2.02,2.47,3.15,2.47.56,0,1.13-.23,1.46-.56.45-.34.67-.79.67-1.24s-.22-.79-.45-1.24c-.34-.45-1.02-1.01-2.14-1.91-1.91-1.69-3.26-2.92-3.83-3.82-.56-.9-.9-1.69-.9-2.59,0-1.35.45-2.36,1.46-3.37,1.02-.9,2.14-1.35,3.6-1.35.9,0,1.8.22,2.59.67.9.45,1.8,1.24,2.7,2.36h0Zm1.91-2.59h10.23v3.49h-3.37v14.96h-3.6v-14.96h-3.26v-3.49Zm36.78,3.26l-2.48,2.36c-1.69-1.8-3.6-2.7-5.62-2.7-1.8,0-3.26.68-4.5,1.8-1.24,1.24-1.8,2.7-1.8,4.5,0,1.24.23,2.36.79,3.26.57.9,1.24,1.69,2.25,2.25,1.01.56,2.03.79,3.26.79,1.01,0,1.91-.11,2.81-.56.79-.34,1.8-1.01,2.81-2.02l2.36,2.47c-1.35,1.35-2.7,2.25-3.83,2.7-1.24.56-2.7.79-4.16.79-2.93,0-5.29-.9-7.09-2.7-1.8-1.8-2.7-4.16-2.7-6.97,0-1.8.33-3.49,1.24-4.95.79-1.35,2.02-2.47,3.6-3.37,1.46-.9,3.15-1.35,4.95-1.35,1.57,0,3.03.34,4.39,1.01,1.46.56,2.7,1.57,3.71,2.7h0Zm11.7-3.71c2.59,0,4.84,1.01,6.75,2.81,1.91,1.91,2.81,4.27,2.81,6.98s-.9,4.95-2.81,6.86c-1.8,1.8-4.05,2.7-6.75,2.7s-5.07-.9-6.86-2.81c-1.8-1.91-2.7-4.16-2.7-6.86,0-1.69.45-3.38,1.24-4.84.9-1.46,2.02-2.7,3.48-3.49,1.58-.9,3.15-1.35,4.84-1.35h0Zm0,3.49c-1.69,0-3.15.56-4.28,1.8-1.24,1.12-1.8,2.7-1.8,4.5,0,2.03.79,3.6,2.25,4.84,1.12.9,2.36,1.35,3.83,1.35,1.69,0,3.15-.56,4.27-1.8,1.13-1.24,1.8-2.7,1.8-4.39,0-1.8-.67-3.26-1.8-4.5-1.24-1.24-2.58-1.8-4.27-1.8h0Zm12.94-3.04h9.11v3.38h-5.63v3.37h5.63v3.38h-5.63v8.32h-3.48v-18.45Zm12.37,0h9.11v3.38h-5.63v3.37h5.63v3.38h-5.63v8.32h-3.49v-18.45Zm12.26,0h10.13v3.49h-6.64v3.26h6.64v3.38h-6.64v4.95h6.64v3.38h-10.13v-18.45Zm13.39,0h10.01v3.49h-6.53v3.26h6.53v3.38h-6.53v4.95h6.53v3.38h-10.01v-18.45Zm20.25,0h3.49v18.45h-3.49v-18.45Zm7.42,0h3.38l7.99,12.15v-12.15h3.49v18.45h-3.38l-7.88-12.04v12.04h-3.6v-18.45Zm24.41,0h10.24v3.49h-3.38v14.96h-3.6v-14.96h-3.26v-3.49Zm21.26-.45c2.59,0,4.84,1.01,6.75,2.81,1.91,1.91,2.81,4.27,2.81,6.98s-.9,4.95-2.81,6.86c-1.8,1.8-4.05,2.7-6.75,2.7s-5.06-.9-6.86-2.81c-1.8-1.91-2.7-4.16-2.7-6.86,0-1.69.45-3.38,1.24-4.84.9-1.46,2.03-2.7,3.49-3.49,1.57-.9,3.15-1.35,4.84-1.35h0Zm0,3.49c-1.69,0-3.15.56-4.27,1.8-1.24,1.12-1.8,2.7-1.8,4.5,0,2.03.79,3.6,2.25,4.84,1.12.9,2.36,1.35,3.82,1.35,1.69,0,3.15-.56,4.28-1.8,1.12-1.24,1.8-2.7,1.8-4.39,0-1.8-.68-3.26-1.8-4.5-1.24-1.24-2.58-1.8-4.28-1.8h0Zm11.47-3.04h3.49l2.7,11.81,3.26-11.81h2.93l3.38,11.81,2.58-11.81h3.49l-4.16,18.45h-3.38l-3.38-11.92-3.37,11.92h-3.26l-4.28-18.45Zm24.52,0h3.38l7.98,12.15v-12.15h3.49v18.45h-3.38l-7.99-12.04v12.04h-3.48v-18.45Z"/>
    </g>
  </g>
</svg>